<svg id="Layer_1" data-name="Layer 1" xmlns="http://www.w3.org/2000/svg" viewBox="0 0 1170 729"><defs><style>.cls-1{fill:none;stroke:#bbb;stroke-miterlimit:10;stroke-dasharray:12 4;}</style></defs><title>Trail</title><line class="cls-1" x1="585.5" y1="-0.5" x2="585.5" y2="107.5"/><line class="cls-1" x1="584.5" y1="620.5" x2="585.5" y2="729.2"/><line class="cls-1" x1="584.5" y1="620.5" x2="593.5" y2="584.5"/><line class="cls-1" x1="593.5" y1="584.5" x2="674.5" y2="566.5"/><line class="cls-1" x1="674.5" y1="566.5" x2="692.5" y2="539.5"/><line class="cls-1" x1="692.5" y1="539.5" x2="584.5" y2="494.5"/><line class="cls-1" x1="584.5" y1="494.5" x2="495.5" y2="467.5"/><line class="cls-1" x1="495.5" y1="467.5" x2="423.5" y2="431.5"/><line class="cls-1" x1="423.5" y1="431.5" x2="386.5" y2="404.5"/><line class="cls-1" x1="386.5" y1="404.5" x2="413.5" y2="377.5"/><line class="cls-1" x1="413.5" y1="377.5" x2="530.5" y2="368.5"/><line class="cls-1" x1="530.5" y1="368.5" x2="639.5" y2="351.5"/><line class="cls-1" x1="639.5" y1="351.5" x2="720.5" y2="324.5"/><line class="cls-1" x1="720.5" y1="324.5" x2="747.5" y2="306.5"/><line class="cls-1" x1="747.5" y1="306.5" x2="720.5" y2="261.5"/><line class="cls-1" x1="720.5" y1="261.5" x2="486.5" y2="180.5"/><line class="cls-1" x1="486.5" y1="180.5" x2="495.5" y2="144.5"/><line class="cls-1" x1="495.5" y1="144.5" x2="531.5" y2="135.5"/><line class="cls-1" x1="531.5" y1="135.5" x2="576.5" y2="126.5"/><line class="cls-1" x1="576.5" y1="126.5" x2="585.5" y2="108.5"/></svg>